<svg width="40" height="48" viewBox="0 0 40 48" fill="none" xmlns="http://www.w3.org/2000/svg">
<path d="M18.1819 36.4863L14.5453 32.8497L29.0906 18.3044C30.5399 16.8562 31.3375 14.9191 31.3375 12.8501C31.3375 10.781 30.5399 8.84512 29.0906 7.39575C26.084 4.38801 21.1896 4.38801 18.1819 7.39461L3.63661 21.941L0 18.3044L14.5453 3.758C19.5578 -1.25338 27.7147 -1.25338 32.7272 3.758C37.7397 8.77168 37.7397 16.9285 32.7272 21.941L18.1819 36.4863Z" fill="#F04452"/>
<path d="M16.3641 47.5117C12.9215 47.5117 9.69339 46.1794 7.27319 43.7581C4.85299 41.339 3.51953 38.1098 3.51953 34.6683C3.51953 31.2256 4.85299 27.9975 7.27319 25.5773L21.8173 11.0309L25.4539 14.6675L10.9098 29.2139C9.46043 30.6621 8.66288 32.5992 8.66288 34.6683C8.66288 36.7362 9.46043 38.6732 10.9098 40.1226C12.358 41.5708 14.2951 42.3695 16.3641 42.3695C18.4332 42.3695 20.3703 41.5708 21.8173 40.1226L36.3638 25.5773L40.0004 29.2139L25.4539 43.7581C23.0349 46.1794 19.8068 47.5117 16.3641 47.5117Z" fill="#12AC79"/>
</svg>
